<svg xmlns="http://www.w3.org/2000/svg" viewBox="0 0 24 24" role="img" aria-label="WhatsApp">
  <path d="M12 3.2A8.8 8.8 0 0 0 4.5 16L3 21l5.2-1.4A8.8 8.8 0 1 0 12 3.2Zm4.8 12.1c-.2.6-1.2 1.1-1.7 1.1-.5.1-1.1.1-3.5-.9-2.8-1.2-4.5-4.1-4.6-4.3-.1-.2-1.1-1.4-1.1-2.7 0-1.3.7-1.9 1-2.2.3-.2.6-.3.8-.3h.6c.2 0 .4 0 .6.5.2.5.8 1.8.9 2 .1.2.1.4 0 .6s-.2.4-.4.6c-.2.2-.3.4-.5.5-.2.2-.3.4-.1.7.2.4.9 1.4 2 2.2 1.4 1.1 2.5 1.4 2.9 1.6.4.1.6.1.8-.1.2-.2.9-1 .9-1.3.1-.3.2-.3.5-.2.3.1 1.8.8 2.1 1 .3.1.4.2.5.4.1.2.1.8-.1 1.4Z" fill="#0a2540"/>
</svg>
